<?xml version="1.0" standalone="no"?>
<!DOCTYPE svg PUBLIC "-//W3C//DTD SVG 20010904//EN"
 "http://www.w3.org/TR/2001/REC-SVG-20010904/DTD/svg10.dtd">
<svg version="1.0" xmlns="http://www.w3.org/2000/svg"
 width="500.000000pt" height="500.000000pt" viewBox="0 0 500.000000 500.000000"
 preserveAspectRatio="xMidYMid meet">

<g transform="translate(0.000000,500.000000) scale(0.100000,-0.100000)"
fill="#000000" stroke="none">
<path d="M0 2500 l0 -2500 2500 0 2500 0 0 2500 0 2500 -2500 0 -2500 0 0
-2500z m3544 1595 c21 -9 57 -35 80 -59 108 -108 96 -283 -26 -361 l-47 -30 0
-599 -1 -599 168 -171 c188 -191 220 -239 248 -380 62 -301 -179 -596 -488
-596 -79 0 -151 17 -228 52 -60 28 -122 87 -842 807 l-778 776 0 -155 0 -155
277 -277 276 -276 72 5 c88 7 134 -7 187 -55 58 -52 81 -104 82 -182 0 -48 -5
-76 -21 -106 -25 -47 -82 -101 -129 -120 -44 -19 -136 -18 -182 2 -104 43
-170 170 -142 274 l12 43 -209 209 c-114 114 -211 208 -215 208 -5 0 -8 -224
-8 -497 l0 -498 40 -23 c70 -40 110 -113 110 -204 0 -62 -18 -105 -66 -158
-53 -58 -100 -80 -174 -80 -70 0 -120 21 -170 72 -109 108 -88 297 40 370 l40
23 0 594 0 594 -173 176 c-129 131 -180 190 -200 231 -101 210 -66 433 92 591
158 158 377 192 589 92 49 -23 164 -134 830 -797 l772 -771 0 150 0 150 -275
275 -275 275 -78 -3 c-89 -4 -129 8 -184 57 -109 95 -101 286 16 369 122 87
275 60 351 -63 27 -44 30 -56 30 -137 l0 -88 208 -208 207 -207 0 508 c0 330
-3 507 -10 507 -19 0 -91 73 -111 112 -31 61 -29 152 6 217 60 110 191 161
299 116z"/>
<path d="M3406 3929 c-54 -42 -21 -139 48 -139 39 0 61 15 76 50 32 77 -57
141 -124 89z"/>
<path d="M1417 3486 c-126 -45 -207 -163 -207 -301 0 -108 24 -155 140 -270
l100 -100 0 162 c0 159 0 162 26 192 28 34 76 51 120 44 22 -4 221 -198 859
-838 914 -917 867 -876 1002 -883 95 -5 157 16 223 75 69 62 102 129 108 218
7 113 -19 167 -139 290 l-99 100 0 -156 c0 -146 -2 -158 -23 -190 -28 -42 -81
-62 -129 -49 -24 8 -241 218 -873 849 -767 766 -844 840 -889 855 -60 19 -167
20 -219 2z"/>
<path d="M2674 3218 c-23 -11 -44 -48 -44 -77 0 -10 9 -30 21 -45 42 -53 139
-21 139 46 0 40 -10 57 -41 73 -32 17 -46 18 -75 3z"/>
<path d="M2229 1891 c-16 -16 -29 -37 -29 -46 0 -24 27 -72 45 -79 88 -33 160
71 91 131 -37 31 -71 29 -107 -6z"/>
<path d="M1505 1198 c-31 -17 -45 -39 -45 -72 1 -80 98 -110 144 -44 28 40 13
97 -31 117 -30 14 -42 13 -68 -1z"/>
</g>
</svg>
